<svg width="268" height="71" viewBox="0 0 268 71" fill="none" xmlns="http://www.w3.org/2000/svg">
<g clip-path="url(#clip0)">
<path d="M38.8683 59.9439C38.9742 60.2086 39.0801 60.5793 39.1331 61.0029L39.8744 65.7158C39.8744 65.7688 39.9803 65.7688 39.9803 65.7158L40.6687 58.9907C40.6687 58.8318 40.8276 58.673 40.9865 58.673H41.3042C41.516 58.673 41.6219 58.7789 41.6219 58.9907L40.8276 65.8747C40.7746 66.4042 40.6687 66.8279 40.5628 67.1456C40.5099 67.3045 40.404 67.4104 40.1922 67.4104H39.7156C39.5567 67.4104 39.3978 67.3574 39.3449 67.1986C39.239 66.8279 39.1331 66.4042 39.0272 65.8747L38.2858 61.1089C38.2858 61.0559 38.2329 61.0559 38.2329 61.1089L37.5974 65.8218C37.5445 66.3513 37.4385 66.8279 37.2797 67.1986C37.2267 67.3574 37.1208 67.4104 36.909 67.4104H36.3795C36.2206 67.4104 36.0617 67.3574 36.0088 67.1456C35.9029 66.7749 35.797 66.2983 35.6911 65.8218L34.9497 58.9907C34.9497 58.7789 35.0556 58.673 35.2674 58.673H35.6381C35.797 58.673 35.9558 58.7789 35.9558 58.9907L36.6972 65.7688C36.6972 65.8218 36.7501 65.8218 36.8031 65.7688L37.4915 61.0029C37.5445 60.5793 37.6504 60.2086 37.7033 59.9439C37.7563 59.785 37.8622 59.6791 38.074 59.6791H38.6035C38.6565 59.6791 38.8153 59.785 38.8683 59.9439Z" fill="white"/>
<path d="M48.4529 62.6445V67.1456C48.4529 67.3575 48.347 67.4634 48.1352 67.4634H47.6586C47.4468 67.4634 47.3409 67.3575 47.3409 67.1456V62.7505C47.3409 61.9561 46.8643 61.5325 46.2818 61.5325C45.4875 61.5325 44.7462 62.3798 44.3755 63.4389C44.3755 63.4918 44.3755 63.4918 44.3755 63.5448V67.1456C44.3755 67.3575 44.2696 67.4634 44.0578 67.4634H43.6341C43.4223 67.4634 43.3164 67.3575 43.3164 67.1456V58.5141C43.3164 58.3023 43.4223 58.1964 43.6341 58.1964H44.0578C44.2696 58.1964 44.3755 58.3023 44.3755 58.5141V61.6384C44.3755 61.6914 44.4284 61.6914 44.4814 61.6384C45.0109 60.8971 45.7523 60.5264 46.4936 60.5264C47.6057 60.5264 48.4529 61.2677 48.4529 62.6445Z" fill="white"/>
<path d="M55.1783 65.9277C55.2842 65.7688 55.443 65.7158 55.6019 65.7688L56.0785 65.9277C56.2903 65.9806 56.3433 66.1395 56.2374 66.3513C55.7078 67.1456 54.8076 67.5163 53.7485 67.5163C51.7363 67.5163 50.5713 66.3513 50.5713 63.9684C50.5713 61.8502 51.8422 60.4734 53.6426 60.4734C55.4431 60.4734 56.4492 61.7972 56.4492 63.3859C56.4492 63.5977 56.4492 63.9684 56.3962 64.2331C56.3962 64.392 56.2374 64.4979 56.0785 64.4979H51.8422C51.7892 64.4979 51.7892 64.5508 51.7892 64.6038C51.9481 65.8747 52.5835 66.5101 53.8015 66.5101C54.384 66.6161 54.9135 66.3513 55.1783 65.9277ZM51.7363 63.5977C51.7363 63.6506 51.7363 63.6506 51.7892 63.6506H55.2312C55.2842 63.6506 55.2842 63.6506 55.2842 63.5977C55.2842 63.4918 55.2842 63.4388 55.2842 63.3329C55.2842 62.3268 54.5958 61.4795 53.5897 61.4795C52.6365 61.5325 51.8951 62.3268 51.7363 63.5977Z" fill="white"/>
<path d="M64.0215 62.9622C64.0215 63.174 63.9156 63.2799 63.7038 63.2799L63.2272 63.3329C63.0154 63.3329 62.9095 63.227 62.9095 63.0152C62.8036 61.7972 62.4329 61.4795 61.9034 61.4795C61.0561 61.4795 60.2618 62.4327 59.8911 63.6506C59.8911 63.7036 59.8911 63.7036 59.8911 63.7565V67.0926C59.8911 67.3044 59.7852 67.4103 59.5734 67.4103H59.1498C58.9379 67.4103 58.832 67.3044 58.832 67.0926V60.897C58.832 60.6852 58.9379 60.5793 59.1498 60.5793H59.4145C59.6263 60.5793 59.7323 60.6852 59.7323 60.844L59.8911 61.9031C59.8911 61.9031 59.9441 61.8502 59.997 61.7443C60.5266 60.844 61.2679 60.4204 62.1152 60.4204C63.3331 60.5263 63.9686 61.2677 64.0215 62.9622Z" fill="white"/>
<path d="M70.4288 65.9277C70.5347 65.7688 70.6936 65.7158 70.8524 65.7688L71.329 65.9277C71.5408 65.9806 71.5938 66.1395 71.4879 66.3513C70.9583 67.1456 70.0581 67.5163 68.999 67.5163C66.9868 67.5163 65.8218 66.3513 65.8218 63.9684C65.8218 61.8502 67.0927 60.4734 68.8931 60.4734C70.6936 60.4734 71.6997 61.7972 71.6997 63.3859C71.6997 63.5977 71.6997 63.9684 71.6467 64.2331C71.6467 64.392 71.4879 64.4979 71.329 64.4979H67.0927C67.0397 64.4979 67.0397 64.5508 67.0397 64.6038C67.1986 65.8747 67.834 66.5101 69.052 66.5101C69.5815 66.6161 70.1111 66.3513 70.4288 65.9277ZM66.9338 63.5977C66.9338 63.6506 66.9338 63.6506 66.9868 63.6506H70.4288C70.4817 63.6506 70.4817 63.6506 70.4817 63.5977C70.4817 63.4918 70.4817 63.4388 70.4817 63.3329C70.4817 62.3268 69.7933 61.4795 68.7872 61.4795C67.834 61.5325 67.0927 62.3268 66.9338 63.5977Z" fill="white"/>
<path d="M82.6081 66.4572H86.4738C86.6856 66.4572 86.7915 66.5631 86.7915 66.7749V67.1456C86.7915 67.3574 86.6856 67.4633 86.4738 67.4633H81.8138C81.602 67.4633 81.4961 67.3574 81.4961 67.1456V58.9907C81.4961 58.7789 81.602 58.673 81.8138 58.673H82.2375C82.4493 58.673 82.5552 58.7789 82.5552 58.9907V66.4042C82.5552 66.4572 82.5552 66.4572 82.6081 66.4572Z" fill="white"/>
<path d="M93.1993 65.9277C93.3052 65.7688 93.464 65.7158 93.6229 65.7688L94.0995 65.9277C94.3113 65.9806 94.3643 66.1395 94.2584 66.3513C93.7288 67.1456 92.8286 67.5163 91.7695 67.5163C89.7573 67.5163 88.5923 66.3513 88.5923 63.9684C88.5923 61.8502 89.8632 60.4734 91.6636 60.4734C93.4641 60.4734 94.4702 61.7972 94.4702 63.3859C94.4702 63.5977 94.4702 63.9684 94.4172 64.2331C94.4172 64.392 94.2584 64.4979 94.0995 64.4979H89.8632C89.8102 64.4979 89.8102 64.5508 89.8102 64.6038C89.9691 65.8747 90.6045 66.5101 91.8225 66.5101C92.405 66.6161 92.9345 66.3513 93.1993 65.9277ZM89.7573 63.5977C89.7573 63.6506 89.7573 63.6506 89.8102 63.6506H93.2522C93.3052 63.6506 93.3052 63.6506 93.3052 63.5977C93.3052 63.4918 93.3052 63.4388 93.3052 63.3329C93.3052 62.3268 92.6168 61.4795 91.6107 61.4795C90.6045 61.5325 89.8632 62.3268 89.7573 63.5977Z" fill="white"/>
<path d="M102.413 66.722L102.466 67.0927C102.466 67.3045 102.413 67.4104 102.254 67.4633C102.095 67.5163 101.883 67.5692 101.566 67.5692C101.036 67.5692 100.665 67.1986 100.507 66.6161C100.507 66.5631 100.454 66.5631 100.401 66.6161C99.7123 67.3574 98.918 67.6222 98.1766 67.6222C97.0646 67.6222 96.3232 66.8279 96.3232 65.6629C96.3232 64.3391 97.0116 63.5447 100.348 63.0152C100.401 63.0152 100.401 62.9623 100.401 62.9093V62.6445C100.401 61.9561 99.9241 61.5325 99.1298 61.5325C98.5473 61.5325 98.0707 61.7443 97.7 62.2738C97.5941 62.4327 97.4353 62.4857 97.2764 62.3798L96.8528 62.1679C96.6939 62.062 96.641 61.9032 96.7469 61.7443C97.2764 60.8441 98.2296 60.5264 99.1298 60.5264C100.613 60.5264 101.46 61.3207 101.46 62.6445V65.7688C101.46 66.1924 101.513 66.5631 101.778 66.5631C101.883 66.5631 101.989 66.5631 102.095 66.5102C102.254 66.4043 102.36 66.4572 102.413 66.722ZM100.348 65.3981C100.348 65.3981 100.348 65.3452 100.348 65.2922V64.0213C100.348 63.9684 100.295 63.9154 100.242 63.9684C98.1766 64.3391 97.3823 64.7097 97.3823 65.61C97.3823 66.2454 97.806 66.5631 98.3355 66.5631C99.0769 66.6161 99.9771 65.9806 100.348 65.3981Z" fill="white"/>
<path d="M109.668 62.9622C109.668 63.174 109.562 63.2799 109.35 63.2799L108.873 63.3329C108.661 63.3329 108.555 63.227 108.555 63.0152C108.45 61.7972 108.079 61.4795 107.549 61.4795C106.702 61.4795 105.908 62.4327 105.537 63.6506C105.537 63.7036 105.537 63.7036 105.537 63.7565V67.0926C105.537 67.3044 105.431 67.4103 105.219 67.4103H104.796C104.584 67.4103 104.478 67.3044 104.478 67.0926V60.897C104.478 60.6852 104.584 60.5793 104.796 60.5793H105.061C105.219 60.5793 105.378 60.6852 105.378 60.844L105.537 61.9031C105.537 61.9031 105.59 61.8502 105.643 61.7443C106.173 60.844 106.914 60.4204 107.761 60.4204C108.926 60.5263 109.562 61.2677 109.668 62.9622Z" fill="white"/>
<path d="M116.816 62.6445V67.1456C116.816 67.3574 116.711 67.4633 116.499 67.4633H116.075C115.863 67.4633 115.757 67.3574 115.757 67.1456V62.7504C115.757 61.9561 115.281 61.4795 114.698 61.4795C113.904 61.4795 113.163 62.3268 112.792 63.4388C112.792 63.4918 112.792 63.4918 112.792 63.5447V67.1456C112.792 67.3574 112.686 67.4633 112.474 67.4633H112.051C111.839 67.4633 111.733 67.3574 111.733 67.1456V60.95C111.733 60.7382 111.839 60.6323 112.051 60.6323H112.315C112.527 60.6323 112.633 60.7382 112.633 60.897L112.739 61.6914C112.739 61.7443 112.792 61.7443 112.845 61.6914C113.374 60.897 114.169 60.5264 114.857 60.5264C116.022 60.5264 116.816 61.2677 116.816 62.6445Z" fill="white"/>
<path d="M122.747 66.5102H124.442C124.654 66.5102 124.759 66.6161 124.759 66.8279V67.1456C124.759 67.3574 124.654 67.4634 124.442 67.4634H119.623C119.411 67.4634 119.305 67.3574 119.305 67.1456V66.8279C119.305 66.6161 119.411 66.5102 119.623 66.5102H121.529C121.582 66.5102 121.582 66.5102 121.582 66.4572V61.6914C121.582 61.6384 121.582 61.6384 121.529 61.6384H119.835C119.623 61.6384 119.517 61.5325 119.517 61.3207V61.003C119.517 60.7912 119.623 60.6852 119.835 60.6852H122.324C122.535 60.6852 122.641 60.7912 122.641 61.003V66.4572C122.694 66.4572 122.694 66.5102 122.747 66.5102ZM121.159 58.5671C121.159 58.0905 121.582 57.6669 122.112 57.6669C122.588 57.6669 123.012 58.0905 123.012 58.5671C123.012 59.0437 122.588 59.4673 122.112 59.4673C121.582 59.5203 121.159 59.0966 121.159 58.5671Z" fill="white"/>
<path d="M132.014 62.6445V67.1456C132.014 67.3574 131.908 67.4633 131.697 67.4633H131.273C131.061 67.4633 130.955 67.3574 130.955 67.1456V62.7504C130.955 61.9561 130.479 61.4795 129.896 61.4795C129.102 61.4795 128.36 62.3268 127.99 63.4388C127.99 63.4918 127.99 63.4918 127.99 63.5447V67.1456C127.99 67.3574 127.884 67.4633 127.672 67.4633H127.248C127.037 67.4633 126.931 67.3574 126.931 67.1456V60.95C126.931 60.7382 127.037 60.6323 127.248 60.6323H127.513C127.672 60.6323 127.831 60.7382 127.831 60.897L127.937 61.6914C127.937 61.7443 127.99 61.7443 128.043 61.6914C128.572 60.897 129.314 60.5264 130.055 60.5264C131.22 60.5264 132.014 61.2677 132.014 62.6445Z" fill="white"/>
<path d="M140.222 68.3106C140.222 69.7933 138.951 70.4817 137.151 70.4817C135.245 70.4817 134.186 69.7933 134.186 68.5754C134.186 67.7811 134.715 67.2515 135.351 66.8808C135.403 66.8808 135.403 66.8279 135.351 66.7749C134.927 66.6161 134.662 66.2454 134.662 65.7688C134.662 65.2922 134.927 64.8686 135.403 64.6038C135.456 64.5509 135.456 64.5509 135.403 64.4979C134.874 64.0743 134.556 63.4918 134.556 62.8034C134.556 61.5325 135.615 60.5264 137.151 60.5264C137.681 60.5264 138.104 60.6323 138.475 60.7911C138.528 60.7911 138.528 60.7911 138.581 60.7911L139.693 59.785C139.852 59.6261 140.011 59.6791 140.116 59.838L140.434 60.2086C140.54 60.3675 140.54 60.5264 140.381 60.6323L139.322 61.3207C139.269 61.3207 139.269 61.3736 139.322 61.4266C139.64 61.7973 139.799 62.2738 139.799 62.8034C139.799 64.1272 138.74 65.0804 137.204 65.0804C136.833 65.0804 136.463 65.0274 136.145 64.9215C136.092 64.9215 136.092 64.9215 136.039 64.9215C135.774 65.0804 135.668 65.2922 135.668 65.504C135.668 65.8747 136.039 66.0336 136.727 66.0865L137.892 66.1924C139.163 66.3513 140.222 66.9338 140.222 68.3106ZM139.163 68.3106C139.163 67.7811 138.846 67.1986 137.469 67.0927C137.098 67.0927 136.78 67.0397 136.463 66.9867C136.41 66.9867 136.41 66.9867 136.357 66.9867C135.615 67.3574 135.245 67.7811 135.245 68.3636C135.245 68.999 135.774 69.4756 137.098 69.4756C138.475 69.5285 139.163 69.1579 139.163 68.3106ZM135.668 62.8034C135.668 63.5447 136.251 64.1272 137.204 64.1272C138.157 64.1272 138.74 63.5447 138.74 62.8034C138.74 62.062 138.157 61.4795 137.204 61.4795C136.251 61.4266 135.668 62.062 135.668 62.8034Z" fill="white"/>
<path d="M152.349 67.5693C150.337 67.5693 149.119 65.9277 149.119 63.0682C149.119 60.1028 150.337 58.5671 152.349 58.5671C153.937 58.5671 154.732 59.4674 155.208 60.7383C155.261 60.9501 155.208 61.056 155.05 61.1089L154.467 61.2678C154.308 61.3207 154.149 61.2678 154.096 61.056C153.779 60.0499 153.302 59.5203 152.402 59.5203C151.184 59.5203 150.39 60.8971 150.39 63.0153C150.39 65.1334 151.131 66.5102 152.402 66.5102C153.885 66.5102 154.255 65.663 154.308 64.2332C154.308 64.1803 154.308 64.1803 154.255 64.1803H152.772C152.561 64.1803 152.455 64.0744 152.455 63.8625V63.4919C152.455 63.28 152.561 63.1741 152.772 63.1741H155.155C155.367 63.1741 155.473 63.28 155.473 63.4919V63.8096C155.367 66.3514 154.308 67.5693 152.349 67.5693Z" fill="white"/>
<path d="M161.616 65.9277C161.722 65.7688 161.881 65.7158 162.039 65.7688L162.516 65.9277C162.728 65.9806 162.781 66.1395 162.675 66.3513C162.145 67.1456 161.245 67.5163 160.186 67.5163C158.174 67.5163 157.009 66.3513 157.009 63.9684C157.009 61.8502 158.28 60.4734 160.08 60.4734C161.881 60.4734 162.887 61.7972 162.887 63.3859C162.887 63.5977 162.887 63.9684 162.834 64.2331C162.834 64.392 162.675 64.4979 162.516 64.4979H158.28C158.227 64.4979 158.227 64.5508 158.227 64.6038C158.386 65.8747 159.021 66.5101 160.239 66.5101C160.821 66.6161 161.298 66.3513 161.616 65.9277ZM158.174 63.5977C158.174 63.6506 158.174 63.6506 158.227 63.6506H161.669C161.722 63.6506 161.722 63.6506 161.722 63.5977C161.722 63.4918 161.722 63.4388 161.722 63.3329C161.722 62.3268 161.033 61.4795 160.027 61.4795C159.021 61.5325 158.28 62.3268 158.174 63.5977Z" fill="white"/>
<path d="M169.876 66.2454L170.088 66.6691C170.194 66.8279 170.141 66.9868 169.982 67.0927C169.506 67.4104 168.976 67.5693 168.182 67.5693C166.752 67.5693 165.958 66.775 165.958 65.4511V61.6914C165.958 61.6384 165.958 61.6384 165.905 61.6384H164.687C164.475 61.6384 164.369 61.5325 164.369 61.3207V61.003C164.369 60.7912 164.475 60.6852 164.687 60.6852H165.905C165.958 60.6852 165.958 60.6852 165.958 60.6323V59.3084C165.958 59.0966 166.064 58.9907 166.275 58.9907H166.699C166.911 58.9907 167.017 59.0966 167.017 59.3084V60.6323C167.017 60.6852 167.017 60.6852 167.07 60.6852H169.665C169.876 60.6852 169.982 60.7912 169.982 61.003V61.3207C169.982 61.5325 169.876 61.6384 169.665 61.6384H167.07C167.017 61.6384 167.017 61.6384 167.017 61.6914V65.4511C167.017 66.1395 167.493 66.6161 168.182 66.6161C168.658 66.6161 169.082 66.4572 169.453 66.1925C169.612 66.0866 169.77 66.0866 169.876 66.2454Z" fill="white"/>
<path d="M172.365 66.0865C172.259 65.9277 172.365 65.7688 172.577 65.7159L173.16 65.504C173.318 65.4511 173.477 65.504 173.53 65.7159C173.848 66.3513 174.43 66.669 175.172 66.669C176.284 66.669 176.866 66.2984 176.866 65.557C176.866 63.7036 172.577 65.1334 172.577 62.4857C172.577 61.5325 173.265 60.5264 175.066 60.5264C176.443 60.5264 177.237 60.95 177.661 61.7973C177.767 61.9561 177.661 62.115 177.502 62.1679L176.972 62.3798C176.813 62.4327 176.655 62.3798 176.549 62.2209C176.178 61.5854 175.807 61.4266 175.066 61.4266C174.219 61.4266 173.689 61.7973 173.689 62.4327C173.689 63.9154 177.978 62.8034 177.978 65.4511C177.978 66.5631 177.29 67.5692 175.225 67.5692C173.742 67.5692 172.789 67.0397 172.365 66.0865Z" fill="white"/>
<path d="M187.563 65.3453L188.093 65.1335C188.304 65.0276 188.41 65.1335 188.463 65.3453C188.781 66.2455 189.416 66.6162 190.211 66.6162C191.27 66.6162 191.799 66.0337 191.799 65.2923C191.799 64.1803 190.687 63.7567 189.575 63.1742C188.569 62.6446 187.616 62.0092 187.616 60.6853C187.616 59.7851 188.357 58.6201 190.158 58.6201C191.535 58.6201 192.276 59.2026 192.858 60.3146C192.964 60.4735 192.911 60.6324 192.7 60.7383L192.117 60.9501C191.958 61.003 191.799 60.9501 191.693 60.7912C191.27 59.891 190.793 59.5733 190.105 59.5733C189.205 59.5733 188.834 60.0499 188.834 60.6853C188.834 61.4267 189.734 61.9033 190.687 62.4328C191.799 63.0153 192.964 63.7567 192.964 65.2394C192.964 66.2455 192.17 67.6223 190.158 67.6223C188.675 67.6223 187.669 66.8809 187.298 65.7689C187.298 65.5571 187.404 65.4512 187.563 65.3453Z" fill="white"/>
<path d="M194.765 64.0213C194.765 61.9032 195.983 60.5264 197.836 60.5264C199.689 60.5264 200.96 61.9032 200.96 64.0213C200.96 66.1395 199.742 67.5692 197.836 67.5692C195.983 67.5692 194.765 66.1924 194.765 64.0213ZM199.795 64.0213C199.795 62.4857 199.001 61.4795 197.836 61.4795C196.671 61.4795 195.877 62.4857 195.877 64.0213C195.877 65.557 196.618 66.5631 197.836 66.5631C199.001 66.6161 199.795 65.557 199.795 64.0213Z" fill="white"/>
<path d="M206.044 66.5102H207.95C208.162 66.5102 208.268 66.6161 208.268 66.8279V67.1457C208.268 67.3575 208.162 67.4634 207.95 67.4634H202.92C202.708 67.4634 202.602 67.3575 202.602 67.1457V66.8279C202.602 66.6161 202.708 66.5102 202.92 66.5102H204.826C204.879 66.5102 204.879 66.5102 204.879 66.4573V59.2555C204.879 59.2026 204.879 59.2026 204.826 59.2026H203.132C202.92 59.2026 202.814 59.0967 202.814 58.8848V58.5671C202.814 58.3553 202.92 58.2494 203.132 58.2494H205.673C205.885 58.2494 205.991 58.3553 205.991 58.5671V66.5102C205.991 66.4573 205.991 66.5102 206.044 66.5102Z" fill="white"/>
<path d="M212.452 67.1986C212.293 66.8809 212.134 66.4572 212.028 66.0866L210.227 60.95C210.174 60.7382 210.227 60.5793 210.492 60.5793H211.075C211.234 60.5793 211.392 60.6853 211.445 60.8441L213.087 66.0866C213.087 66.1395 213.14 66.1395 213.193 66.0866L214.887 60.8441C214.94 60.6853 215.099 60.5793 215.258 60.5793H215.735C215.946 60.5793 216.052 60.7382 215.999 60.95L214.199 66.0866C214.093 66.4572 213.881 66.8809 213.775 67.1986C213.722 67.3575 213.564 67.4104 213.405 67.4104H212.822C212.61 67.4634 212.504 67.3575 212.452 67.1986Z" fill="white"/>
<path d="M222.407 65.9277C222.513 65.7688 222.672 65.7158 222.83 65.7688L223.307 65.9277C223.519 65.9806 223.572 66.1395 223.466 66.3513C222.936 67.1456 222.036 67.5163 220.977 67.5163C218.965 67.5163 217.8 66.3513 217.8 63.9684C217.8 61.8502 219.071 60.4734 220.871 60.4734C222.672 60.4734 223.678 61.7972 223.678 63.3859C223.678 63.5977 223.678 63.9684 223.625 64.2331C223.625 64.392 223.466 64.4979 223.307 64.4979H219.071C219.018 64.4979 219.018 64.5508 219.018 64.6038C219.177 65.8747 219.812 66.5101 221.03 66.5101C221.612 66.6161 222.142 66.3513 222.407 65.9277ZM218.965 63.5977C218.965 63.6506 218.965 63.6506 219.018 63.6506H222.46C222.513 63.6506 222.513 63.6506 222.513 63.5977C222.513 63.4918 222.513 63.4388 222.513 63.3329C222.513 62.3268 221.824 61.4795 220.818 61.4795C219.865 61.5325 219.124 62.3268 218.965 63.5977Z" fill="white"/>
<path d="M230.085 58.1964H230.509C230.72 58.1964 230.826 58.3023 230.826 58.5141V67.1456C230.826 67.3575 230.72 67.4634 230.509 67.4634H230.244C230.085 67.4634 229.926 67.3575 229.926 67.1986L229.873 66.6161C229.873 66.5631 229.82 66.5631 229.767 66.6161C229.344 67.2515 228.708 67.6222 227.967 67.6222C226.484 67.6222 225.266 66.4043 225.266 64.0743C225.266 61.7973 226.537 60.5793 227.967 60.5793C228.655 60.5793 229.291 60.95 229.714 61.4796C229.767 61.5325 229.82 61.5325 229.82 61.4796V58.5671C229.82 58.3023 229.926 58.1964 230.085 58.1964ZM229.767 65.0275C229.767 64.9745 229.767 64.9745 229.767 64.9216V63.0682C229.767 63.0682 229.767 63.0152 229.767 62.9623C229.397 62.0091 228.708 61.4796 228.073 61.4796C227.067 61.4796 226.431 62.5386 226.431 64.0214C226.431 65.61 227.067 66.5631 228.073 66.5631C228.549 66.6161 229.344 66.3513 229.767 65.0275Z" fill="white"/>
<path d="M80.9136 35.3732H61.3206V1.2179H45.6992V49.3001H80.9136V35.3732Z" fill="white"/>
<path d="M81.9727 49.3531H96.8527C97.2763 47.076 97.9648 44.799 98.6532 42.522H117.187C117.928 44.852 118.511 47.129 119.04 49.3531H133.92C133.92 41.4629 118.723 13.6621 116.975 1.27087H98.9709C97.1704 13.6621 81.9727 41.4629 81.9727 49.3531ZM109.138 21.4463C110.25 24.3058 111.468 27.2713 112.686 30.2367H103.154L106.702 21.4463L107.92 18.322L109.138 21.4463Z" fill="white"/>
<path d="M224.578 1.2179V49.3001H239.987V35.3732C241.947 35.3732 244.224 35.638 245.6 36.9618C250.048 41.1452 250.472 49.3001 250.472 49.3001H267.894C266.941 46.4406 266.199 39.5036 262.228 35.5321C260.375 33.7316 258.203 32.5137 255.873 31.6135C262.122 29.6542 266.411 23.9351 266.411 17.4748C266.411 3.23015 253.861 1.2179 246.606 1.2179H224.578ZM245.018 15.1977C247.03 15.1977 249.996 15.1448 249.996 19.0104C249.996 23.1938 246.342 23.2997 245.018 23.2997H239.987V15.1977H245.018Z" fill="white"/>
<path d="M135.033 49.3531H155.579C178.508 49.3531 181.95 34.4201 181.95 25.3649C181.95 14.6153 176.019 1.27087 155.579 1.27087H135.033V49.3531ZM155.579 16.2039C163.575 16.2039 165.375 20.2813 165.375 25.3649C165.375 30.5015 163.416 34.473 155.579 34.473H150.495V16.2039H155.579Z" fill="white"/>
<path d="M222.354 35.4262H198.683V30.4485H219.971V19.3282H198.683V15.1978H222.354L222.883 1.27087H183.221V49.3531H222.883L222.354 35.4262Z" fill="white"/>
<path d="M31.7194 19.9636L28.3304 19.2223C28.0656 19.1693 21.4464 17.8984 20.1225 17.263C19.1164 16.7864 18.4809 16.2039 18.375 15.5685C18.3221 15.0919 18.4809 14.6683 18.9046 14.2446C20.1755 13.0267 22.6113 13.0796 29.2835 14.5623C31.8253 15.0919 34.9496 16.3098 36.4323 17.263L41.7277 4.97768C40.6157 4.23632 40.0332 3.97155 39.5566 3.70678L39.3448 3.60088C35.1614 1.74749 31.031 0.582501 26.7418 0.158869C17.1571 -0.688394 9.3199 1.58863 4.60699 6.5663C1.00613 10.4849 -0.317724 15.4096 0.953171 20.0696C2.22407 24.7295 6.03675 28.4363 11.0674 29.9719C12.0205 30.2897 13.0267 30.5015 13.9798 30.7133L15.7803 31.031L17.4748 31.2958L19.9636 31.6665C22.5054 32.0901 25.1002 32.7785 25.5238 34.2612C25.6827 34.8437 25.5768 35.3732 25.312 35.8498C24.8884 36.5382 23.9352 37.0148 22.7702 37.2796C19.2752 37.915 9.00217 35.2144 5.45426 32.7785L0 46.07C2.96542 47.5527 6.19561 48.7176 9.63762 49.5649C29.7072 54.3837 41.2511 46.9172 43.4752 37.915C45.5934 29.3365 40.9334 22.2936 31.7194 19.9636Z" fill="white"/>
</g>
<defs>
<clipPath id="clip0">
<rect width="268" height="70.4817" fill="white"/>
</clipPath>
</defs>
</svg>
